<?xml version="1.0" encoding="UTF-8" standalone="no"?>
<!-- Created with Inkscape (http://www.inkscape.org/) -->

<svg
   width="640"
   height="220"
   viewBox="0 0 169.33333 58.208333"
   version="1.1"
   id="svg1"
   inkscape:version="1.3 (0e150ed6c4, 2023-07-21)"
   sodipodi:docname="ignoro.svg"
   inkscape:export-filename="../solbero.github.io/assets/img/ignoro.png"
   inkscape:export-xdpi="60"
   inkscape:export-ydpi="60"
   xmlns:inkscape="http://www.inkscape.org/namespaces/inkscape"
   xmlns:sodipodi="http://sodipodi.sourceforge.net/DTD/sodipodi-0.dtd"
   xmlns="http://www.w3.org/2000/svg"
   xmlns:svg="http://www.w3.org/2000/svg">
  <sodipodi:namedview
     id="namedview1"
     pagecolor="#ffffff"
     bordercolor="#000000"
     borderopacity="0.25"
     inkscape:showpageshadow="2"
     inkscape:pageopacity="0.0"
     inkscape:pagecheckerboard="0"
     inkscape:deskcolor="#d1d1d1"
     inkscape:document-units="mm"
     inkscape:zoom="1.4146745"
     inkscape:cx="382.77356"
     inkscape:cy="158.34031"
     inkscape:window-width="1920"
     inkscape:window-height="1011"
     inkscape:window-x="0"
     inkscape:window-y="0"
     inkscape:window-maximized="1"
     inkscape:current-layer="layer1" />
  <defs
     id="defs1">
    <rect
       x="69.125"
       y="63.527164"
       width="54.774857"
       height="38.264618"
       id="rect2" />
    <rect
       x="69.124779"
       y="50.298672"
       width="640.00024"
       height="333.22849"
       id="rect1" />
    <filter
       style="color-interpolation-filters:sRGB"
       inkscape:label="Drop Shadow"
       id="filter141">
      <feFlood
         result="flood"
         in="SourceGraphic"
         flood-opacity="0.400000"
         flood-color="rgb(0,0,0)"
         id="feFlood140" />
      <feGaussianBlur
         result="blur"
         in="SourceGraphic"
         stdDeviation="0.300000"
         id="feGaussianBlur140" />
      <feOffset
         result="offset"
         in="blur"
         dx="0.700000"
         dy="0.700000"
         id="feOffset140" />
      <feComposite
         result="comp1"
         operator="in"
         in="flood"
         in2="offset"
         id="feComposite140" />
      <feComposite
         result="comp2"
         operator="over"
         in="SourceGraphic"
         in2="comp1"
         id="feComposite141" />
    </filter>
    <filter
       style="color-interpolation-filters:sRGB"
       inkscape:label="Drop Shadow"
       id="filter143"
       x="-0.0044757565"
       y="-0.014526208"
       width="1.0133029"
       height="1.0431751">
      <feFlood
         result="flood"
         in="SourceGraphic"
         flood-opacity="0.400000"
         flood-color="rgb(0,0,0)"
         id="feFlood141" />
      <feGaussianBlur
         result="blur"
         in="SourceGraphic"
         stdDeviation="0.300000"
         id="feGaussianBlur141" />
      <feOffset
         result="offset"
         in="blur"
         dx="0.700000"
         dy="0.700000"
         id="feOffset141" />
      <feComposite
         result="comp1"
         operator="in"
         in="flood"
         in2="offset"
         id="feComposite142" />
      <feComposite
         result="comp2"
         operator="over"
         in="SourceGraphic"
         in2="comp1"
         id="feComposite143" />
    </filter>
  </defs>
  <g
     inkscape:label="Layer 1"
     inkscape:groupmode="layer"
     id="layer1"
     transform="translate(-3.5133367,-16.83054)">
    <path
       style="font-weight:900;font-size:28.3465px;font-family:'Source Code Pro';-inkscape-font-specification:'Source Code Pro Heavy';text-align:center;letter-spacing:0px;word-spacing:0px;text-anchor:middle;white-space:pre;stroke-width:1.54145;stroke-linecap:square;paint-order:markers stroke fill;filter:url(#filter143)"
       d="m 25.863352,21.773032 h 3.6995 v -0.971118 h -3.6995 z m 4.624379,0 h 3.699501 v -0.971118 h -3.699501 z m 4.624378,0 h 3.699499 v -0.971118 h -3.699499 z m 4.624377,0 h 3.6995 v -0.971118 h -3.6995 z m -18.466681,9.610992 h 1.094435 l 2.543407,-6.705343 H 23.81321 Z m 13.842304,0.107902 h 3.699499 v -0.97112 h -3.699499 z m 4.655205,-0.107902 h 1.094437 l 2.543406,-6.705343 h -1.094436 z m 4.593549,0.107902 h 3.6995 v -0.97112 h -3.6995 z m 4.624375,0 h 3.6995 v -0.97112 h -3.6995 z m 4.62438,0 h 3.699499 v -0.97112 h -3.699499 z m 9.248757,0 h 3.6995 v -0.97112 h -3.6995 z m 4.624375,0 h 3.6995 v -0.97112 h -3.6995 z m 4.624379,0 h 3.699501 v -0.97112 h -3.699501 z m 4.62438,0 h 3.699501 v -0.97112 h -3.699501 z m 4.624375,0 h 3.6995 v -0.97112 h -3.6995 z m 13.873138,0 h 3.699499 v -0.97112 h -3.699499 z m 4.624374,0 h 3.699504 v -0.97112 h -3.699504 z m 4.624374,0 h 3.6995 v -0.97112 h -3.6995 z m 4.62439,0 h 3.69949 v -0.97112 h -3.69949 z m 13.87312,0 h 3.69951 v -0.97112 h -3.69951 z m 4.62438,0 h 3.69951 v -0.97112 h -3.69951 z m 4.62439,0 h 3.69949 v -0.97112 h -3.69949 z m 4.62437,0 h 3.6995 v -0.97112 h -3.6995 z m 4.62437,0 h 3.69951 v -0.97112 h -3.69951 z m 4.62439,0 h 3.69949 v -0.97112 h -3.69949 z m 4.62437,0 h 3.69949 v -0.97112 h -3.69949 z m 4.62438,0 h 3.6995 v -0.97112 h -3.6995 z m 4.62439,0 h 3.6995 v -0.97112 h -3.6995 z m -138.700515,9.61099 h 1.094435 l 2.543407,-6.705342 H 23.81321 Z m 9.248755,0 h 1.094435 l 2.543407,-6.705342 h -1.094435 z m 4.624376,0 h 1.094438 l 2.543405,-6.705342 h -1.094435 z m 9.217927,0.107905 h 3.6995 v -0.97112 h -3.6995 z m 4.624375,0 h 3.6995 v -0.97112 h -3.6995 z m 11.09851,-5.641738 0.647414,-0.647413 -1.217754,-1.44897 -0.894043,0.878631 z m 2.805455,5.533833 h 1.094437 l 2.543405,-6.705342 H 65.43261 Z m 9.217926,0.107905 h 3.699501 v -0.97112 h -3.699501 z m 4.62438,0 h 3.699501 v -0.97112 h -3.699501 z m 11.822987,-0.107905 h 1.094435 l -2.543406,-6.705342 h -1.094436 z m 2.08097,0 H 91.7299 l 2.543408,-6.705342 H 93.17887 Z m 9.21793,0.107905 h 3.699504 v -0.97112 h -3.699504 z m 4.624374,0 h 3.6995 v -0.97112 h -3.6995 z m 11.823,-0.107905 h 1.09443 l -2.5434,-6.705342 h -1.09444 z m 2.08096,0 h 1.09445 l 2.5434,-6.705342 h -1.09443 z m 9.21793,0.107905 h 3.69951 v -0.97112 h -3.69951 z m 4.62439,0 h 3.69949 v -0.97112 h -3.69949 z m 4.62437,0 h 3.6995 v -0.97112 h -3.6995 z m 4.6552,-0.107905 h 1.09444 l 2.5434,-6.705342 h -1.09443 z m 9.21793,0.107905 h 3.69949 v -0.97112 h -3.69949 z m 4.62438,0 h 3.6995 v -0.97112 h -3.6995 z m 11.82299,-0.107905 h 1.09442 l -2.54339,-6.705342 h -1.09444 z m -155.1787,9.826797 h 3.699499 v -0.97112 H 11.99022 Z m 4.655207,-0.107903 h 1.094436 l 2.543404,-6.705344 h -1.094434 z m 9.248755,0 h 1.094435 l 2.543407,-6.705344 h -1.094437 z m 4.624378,0 h 1.094435 l 2.543407,-6.705344 h -1.094435 z m 9.248754,0 h 1.094437 l 2.543406,-6.705344 h -1.094436 z m 4.593549,0.107903 h 3.6995 v -0.97112 h -3.6995 z m 4.655205,-0.107903 h 1.094435 l 2.543408,-6.705344 h -1.094435 z m 9.24876,0 h 1.094435 l 2.543407,-6.705344 h -1.094438 z m 9.248751,0 h 1.094435 l 2.543408,-6.705344 h -1.094437 z m 9.24876,0 h 1.094435 l 2.543405,-6.705344 h -1.094435 z m 9.24875,0 h 1.094436 l 2.543406,-6.705344 h -1.094435 z m 9.248759,0 h 1.094438 l 2.543406,-6.705344 h -1.094433 z m 4.593548,0.107903 h 3.699504 v -0.97112 h -3.699504 z m 4.655194,-0.107903 h 1.09444 l 2.54342,-6.705344 h -1.09444 z m 9.24877,0 h 1.09444 l 2.5434,-6.705344 h -1.09443 z m 9.24875,0 h 1.09443 l 2.54342,-6.705344 h -1.09445 z m 13.87313,0 h 1.09444 l 2.54341,-6.705344 h -1.09444 z m 9.24877,0 h 1.09444 l 2.5434,-6.705344 h -1.09444 z m 4.59354,0.107903 h 3.69949 v -0.97112 h -3.69949 z m 4.6552,-0.107903 h 1.09443 l 2.54342,-6.705344 h -1.09443 z m 9.24876,0 h 1.09444 l 2.54339,-6.705344 h -1.09442 z M 7.3966717,60.540702 H 8.4911063 L 11.034512,53.835361 H 9.940078 Z m 4.5935483,0.107903 h 3.699499 V 59.677486 H 11.99022 Z m 4.624377,0 h 3.699501 v -0.971119 h -3.699501 z m 4.624378,0 h 3.699499 v -0.971119 h -3.699499 z m 4.655207,-0.107903 h 1.094435 l 2.543407,-6.705341 h -1.094437 z m 7.167785,0 h 1.094435 L 31.612995,53.835361 H 30.51856 Z m 2.050142,0.107903 h 3.699499 v -0.971119 h -3.699499 z m 4.624377,0 h 3.6995 v -0.971119 h -3.6995 z m 5.84213,0.339121 c 1.148387,-0.323705 1.726431,-1.055898 1.726431,-2.065553 0,-0.909462 -0.36224,-1.44897 -1.055897,-1.44897 -0.539511,0 -0.963411,0.354533 -0.963411,0.870922 0,0.554926 0.447024,0.870923 0.924874,0.870923 0.02311,0 0.03853,0 0.06166,0 0.01541,0.416197 -0.315998,0.79385 -1.009654,1.017364 z m 8.061832,-0.447024 h 1.094435 l 2.543408,-6.705341 h -1.094438 z m 4.59355,0.107903 h 3.6995 v -0.971119 h -3.6995 z m 4.655205,-0.107903 h 1.094437 l 2.543405,-6.705341 H 65.43261 Z m 9.248757,0 h 1.094434 L 75.7758,53.835361 h -1.094436 z m 4.593549,0.107903 h 3.699501 v -0.971119 h -3.699501 z m 4.655205,-0.107903 h 1.094434 l 2.543408,-6.705341 h -1.094437 z m 7.167782,0 h 1.094435 l -2.543406,-6.705341 h -1.094436 z m 2.05014,0.107903 h 3.6995 v -0.971119 h -3.6995 z m 4.624386,0 h 3.699499 v -0.971119 h -3.699499 z m 4.624374,0 h 3.699504 v -0.971119 h -3.699504 z m 4.624374,0 h 3.6995 v -0.971119 h -3.6995 z m 4.65522,-0.107903 h 1.09443 l 2.5434,-6.705341 h -1.09443 z m 4.59354,0.107903 h 3.6995 v -0.971119 h -3.6995 z m 4.6552,-0.107903 h 1.09445 l 2.5434,-6.705341 h -1.09443 z m 21.04092,0 h 1.09444 l -2.54341,-6.705341 h -1.09444 z m 2.05014,0.107903 h 3.69951 v -0.971119 h -3.69951 z m 4.62439,0 h 3.69949 v -0.971119 h -3.69949 z m 4.62437,0 h 3.69949 v -0.971119 h -3.69949 z m 4.62438,0 h 3.6995 v -0.971119 h -3.6995 z m 4.65522,-0.107903 h 1.09442 l 2.54341,-6.705341 h -1.09444 z M 28.20637,70.259598 h 1.094437 l 2.543404,-6.705344 h -1.094434 z m 4.593549,0.107902 h 3.6995 v -0.97112 h -3.6995 z m 4.624377,0 h 3.6995 v -0.97112 h -3.6995 z m 4.624377,0 h 3.6995 v -0.97112 h -3.6995 z m 4.62438,0 h 3.699501 v -0.97112 h -3.699501 z m 4.655205,-0.107902 h 1.094435 l 2.543405,-6.705344 h -1.094435 z"
       id="text1"
       aria-label="    ____                           &#10;   /  _/___ _____  ____  _________ &#10;   / // __ `/ __ \/ __ \/ ___/ __ \&#10; _/ // /_/ / / / / /_/ / /  / /_/ /&#10;/___/\__, /_/ /_/\____/_/   \____/ &#10;    /____/                         " />
  </g>
</svg>
