<?xml version="1.0" encoding="UTF-8" standalone="no"?>
<!-- Created with Inkscape (http://www.inkscape.org/) -->

<svg
   width="650"
   height="149.62801"
   viewBox="0 0 171.97917 39.589076"
   version="1.1"
   id="svg1"
   xml:space="preserve"
   inkscape:version="1.3 (0e150ed6c4, 2023-07-21)"
   sodipodi:docname="tempconv.svg"
   inkscape:export-filename="../Development/tempconv/logo.png"
   inkscape:export-xdpi="96"
   inkscape:export-ydpi="96"
   xmlns:inkscape="http://www.inkscape.org/namespaces/inkscape"
   xmlns:sodipodi="http://sodipodi.sourceforge.net/DTD/sodipodi-0.dtd"
   xmlns="http://www.w3.org/2000/svg"
   xmlns:svg="http://www.w3.org/2000/svg"><sodipodi:namedview
     id="namedview1"
     pagecolor="#ffffff"
     bordercolor="#000000"
     borderopacity="0.25"
     inkscape:showpageshadow="2"
     inkscape:pageopacity="0.0"
     inkscape:pagecheckerboard="0"
     inkscape:deskcolor="#d1d1d1"
     inkscape:document-units="mm"
     inkscape:zoom="1.4146745"
     inkscape:cx="278.86273"
     inkscape:cy="18.378786"
     inkscape:window-width="1920"
     inkscape:window-height="1011"
     inkscape:window-x="0"
     inkscape:window-y="0"
     inkscape:window-maximized="1"
     inkscape:current-layer="layer1"
     showguides="false" /><defs
     id="defs1"><filter
       style="color-interpolation-filters:sRGB"
       inkscape:label="Drop Shadow"
       id="filter35"
       x="-0.028450603"
       y="-0.13040642"
       width="1.0835736"
       height="1.3450336"><feFlood
         result="flood"
         in="SourceGraphic"
         flood-opacity="0.400000"
         flood-color="rgb(0,0,0)"
         id="feFlood34" /><feGaussianBlur
         result="blur"
         in="SourceGraphic"
         stdDeviation="2.000000"
         id="feGaussianBlur34" /><feOffset
         result="offset"
         in="blur"
         dx="4.500000"
         dy="3.100000"
         id="feOffset34" /><feComposite
         result="comp1"
         operator="in"
         in="flood"
         in2="offset"
         id="feComposite34" /><feComposite
         result="comp2"
         operator="atop"
         in="comp1"
         in2="comp1"
         id="feComposite35" /></filter></defs><g
     inkscape:label="Layer 1"
     inkscape:groupmode="layer"
     id="layer1"
     transform="translate(5.6711427e-6,-23.861715)"><g
       id="g9"
       transform="matrix(1.0036741,0,0,1.0036741,0.98372821,2.6287311)"
       style="stroke:none"><path
         style="font-weight:bold;font-size:43px;font-family:'Source Serif 4 Display';-inkscape-font-specification:'Source Serif 4 Display Bold';text-align:center;letter-spacing:-1.5875px;word-spacing:0px;text-anchor:middle;fill:#3d96e2;fill-opacity:1;stroke:none;stroke-width:0.5;stroke-linecap:square;stroke-linejoin:round;stroke-dasharray:none;stroke-dashoffset:0;stroke-opacity:1;paint-order:normal"
         d="m 162.68741,29.955335 2.838,0.387 -4.386,12.427 -4.515,-12.298 3.01,-0.516 v -0.946 h -11.051 v 0.946 l 1.849,0.387 7.353,18.404 h 2.365 l 6.751,-18.404 2.15,-0.387 v -0.946 h -6.364 z"
         id="path7" /><path
         style="font-weight:bold;font-size:43px;font-family:'Source Serif 4 Display';-inkscape-font-specification:'Source Serif 4 Display Bold';text-align:center;letter-spacing:-1.5875px;word-spacing:0px;text-anchor:middle;fill:#5587cc;fill-opacity:1;stroke:none;stroke-width:0.5;stroke-linecap:square;stroke-linejoin:round;stroke-dasharray:none;stroke-dashoffset:0;stroke-opacity:1;paint-order:normal"
         d="m 127.7679,48.703335 h 10.32 v -0.946 l -2.064,-0.344 c -0.129,-2.236 -0.129,-5.332 -0.129,-7.697 v -6.364 c 1.247,-1.075 2.58,-1.677 3.827,-1.677 1.72,0 2.537,0.86 2.537,3.44 v 4.601 c 0,2.365 0,5.461 -0.129,7.697 l -2.107,0.344 v 0.946 h 10.191 v -0.946 l -2.064,-0.344 c -0.129,-2.236 -0.129,-5.332 -0.129,-7.697 v -4.73 c 0,-4.601 -2.107,-6.579 -5.375,-6.579 -2.666,0 -4.816,1.247 -6.751,3.827 v -3.397 l -0.602,-0.43 -7.697,2.236 v 0.774 l 2.494,0.731 c 0.086,1.935 0.086,3.569 0.086,6.235 v 1.333 c 0,2.365 0,5.418 -0.129,7.654 l -2.279,0.387 z"
         id="path6" /><path
         style="font-weight:bold;font-size:43px;font-family:'Source Serif 4 Display';-inkscape-font-specification:'Source Serif 4 Display Bold';text-align:center;letter-spacing:-1.5875px;word-spacing:0px;text-anchor:middle;fill:#6e79b7;fill-opacity:1;stroke:none;stroke-width:0.5;stroke-linecap:square;stroke-linejoin:round;stroke-dasharray:none;stroke-dashoffset:0;stroke-opacity:1;paint-order:normal"
         d="m 116.92844,49.348335 c 5.719,0 9.933,-4.257 9.933,-10.492 0,-6.321 -3.655,-10.449 -9.933,-10.449 -5.805,0 -9.89,4.214 -9.89,10.492 0,6.278 3.612,10.449 9.89,10.449 z m 0,-1.118 c -2.365,0 -3.741,-2.193 -3.741,-9.331 0,-7.138 1.376,-9.417 3.741,-9.417 2.408,0 3.741,2.236 3.741,9.374 0,7.095 -1.333,9.374 -3.741,9.374 z"
         id="path5" /><path
         style="font-weight:bold;font-size:43px;font-family:'Source Serif 4 Display';-inkscape-font-specification:'Source Serif 4 Display Bold';text-align:center;letter-spacing:-1.5875px;word-spacing:0px;text-anchor:middle;fill:#866aa1;fill-opacity:1;stroke:none;stroke-width:0.5;stroke-linecap:square;stroke-linejoin:round;stroke-dasharray:none;stroke-dashoffset:0;stroke-opacity:1;paint-order:normal"
         d="m 98.348948,49.348335 c 3.440002,0 6.063002,-1.462 7.654002,-4.773 l -0.645,-0.516 c -1.161,1.29 -2.623,2.107 -4.472,2.107 -3.741002,0 -5.805002,-3.053 -5.805002,-8.041 0,-6.106 2.279,-8.6 4.687,-8.6 0.258002,0 0.473002,0 0.731002,0.043 l 0.215,2.623 c 0.172,2.623 1.462,3.483 2.795,3.483 1.333,0 2.107,-0.602 2.451,-1.935 -0.129,-2.967 -2.537,-5.332 -6.708002,-5.332 -5.805,0 -10.148,3.698 -10.148,10.707 0,6.622 3.999,10.234 9.245,10.234 z m 4.558002,-18.963 -0.516,-0.301 c 0.172,0.086 0.344,0.172 0.516,0.301 z"
         id="path4" /><path
         style="font-weight:bold;font-size:43px;font-family:'Source Serif 4 Display';-inkscape-font-specification:'Source Serif 4 Display Bold';text-align:center;letter-spacing:-1.5875px;word-spacing:0px;text-anchor:middle;fill:#9e5c8c;fill-opacity:1;stroke:none;stroke-width:0.5;stroke-linecap:square;stroke-linejoin:round;stroke-dasharray:none;stroke-dashoffset:0;stroke-opacity:1;paint-order:normal"
         d="m 66.310446,59.281335 h 10.836 v -0.946 l -2.623,-0.43 c -0.129,-2.236 -0.172,-5.246 -0.172,-7.654 v -4.3 c 1.376,2.365 3.139,3.397 5.203,3.397 4.73,0 7.912,-4.214 7.912,-11.051 0,-6.45 -2.967,-9.89 -7.396,-9.89 -2.494,0 -4.343,1.333 -5.633,3.483 v -3.053 l -0.602,-0.43 -7.697,2.236 v 0.774 l 2.494,0.731 c 0.086,1.935 0.086,3.569 0.086,6.235 v 11.868 c 0,2.408 0,5.461 -0.129,7.697 l -2.279,0.387 z m 11.137,-27.993 c 2.365,0 3.999,1.978 3.999,7.31 0,5.547 -1.72,7.826 -3.956,7.826 -1.29,0 -2.107,-0.43 -3.053,-1.462 v -11.954 c 0.86,-1.032 1.849,-1.72 3.01,-1.72 z"
         id="path3" /><path
         style="font-weight:bold;font-size:43px;font-family:'Source Serif 4 Display';-inkscape-font-specification:'Source Serif 4 Display Bold';text-align:center;letter-spacing:-1.5875px;word-spacing:0px;text-anchor:middle;fill:#b64d76;fill-opacity:1;stroke:none;stroke-width:0.5;stroke-linecap:square;stroke-linejoin:round;stroke-dasharray:none;stroke-dashoffset:0;stroke-opacity:1;paint-order:normal"
         d="m 32.078938,48.703335 h 10.32 v -0.946 l -2.064,-0.344 c -0.129,-2.236 -0.129,-5.332 -0.129,-7.697 v -6.364 c 1.247,-1.075 2.58,-1.677 3.827,-1.677 1.677,0 2.537,0.86 2.537,3.44 v 4.601 c 0,2.365 -0.043,5.461 -0.172,7.697 l -2.107,0.344 v 0.946 h 10.191 v -0.946 l -2.064,-0.344 c -0.129,-2.236 -0.172,-5.332 -0.172,-7.697 v -4.73 c 0,-0.516 -0.043,-1.032 -0.086,-1.462 1.247,-1.161 2.666,-1.849 3.913,-1.849 1.72,0 2.537,0.86 2.537,3.44 v 4.601 c 0,2.365 0,5.461 -0.129,7.697 l -2.15,0.344 v 0.946 h 10.191 v -0.946 l -2.064,-0.344 c -0.129,-2.236 -0.129,-5.332 -0.129,-7.697 v -4.73 c 0,-4.601 -2.064,-6.579 -5.332,-6.579 -2.752,0 -5.031,1.376 -6.966,4.171 -0.645,-2.881 -2.494,-4.171 -5.117,-4.171 -2.623,0 -4.773,1.247 -6.708,3.827 v -3.397 l -0.602,-0.43 -7.697,2.236 v 0.774 l 2.494,0.731 c 0.086,1.935 0.086,3.569 0.086,6.235 v 1.333 c 0,2.365 0,5.418 -0.129,7.654 l -2.279,0.387 z"
         id="path2" /><path
         style="font-weight:bold;font-size:43px;font-family:'Source Serif 4 Display';-inkscape-font-specification:'Source Serif 4 Display Bold';text-align:center;letter-spacing:-1.5875px;word-spacing:0px;text-anchor:middle;fill:#cf3f61;fill-opacity:1;stroke:none;stroke-width:0.5;stroke-linecap:square;stroke-linejoin:round;stroke-dasharray:none;stroke-dashoffset:0;stroke-opacity:1;paint-order:normal"
         d="m 23.260467,29.525335 c 1.677,0 2.795,1.247 2.795,4.472 0,2.365 -0.774,3.01 -3.139,3.01 h -3.096 c 0.172,-5.633 1.677,-7.482 3.44,-7.482 z m -0.043,19.823 c 3.397,0 6.149,-1.462 7.783,-4.773 l -0.645,-0.516 c -1.161,1.29 -2.623,2.107 -4.601,2.107 -3.44,0 -5.934,-2.881 -5.934,-8.041 v -0.043 h 11.051 c 0.172,-0.731 0.215,-1.118 0.215,-1.978 0,-4.472 -3.01,-7.697 -7.912,-7.697 -4.859,0 -9.374,3.698 -9.374,10.75 0,6.536 4.171,10.191 9.417,10.191 z"
         id="path1" /><path
         style="font-weight:bold;font-size:43px;font-family:'Source Serif 4 Display';-inkscape-font-specification:'Source Serif 4 Display Bold';text-align:center;letter-spacing:-1.5875px;word-spacing:0px;text-anchor:middle;fill:#e7304b;fill-opacity:1;stroke:none;stroke-width:0.5;stroke-linecap:square;stroke-linejoin:round;stroke-dasharray:none;stroke-dashoffset:0;stroke-opacity:1;paint-order:normal"
         d="m 8.3789355,49.348335 c 3.0100005,0 4.6870005,-1.247 5.6760005,-3.44 l -0.645,-0.473 c -0.731,0.86 -1.419,1.247 -2.537,1.247 -1.2900005,0 -2.2790005,-0.688 -2.2790005,-2.709 v -13.674 h 4.4720005 v -1.29 H 8.5939355 l 0.172,-6.536 h -2.021 l -3.569,6.321 -2.83799999,0.559 v 0.946 H 2.8749355 l -0.086,8.471 v 5.16 c 0,3.698 2.064,5.418 5.59,5.418 z"
         id="text1" /></g></g></svg>
